:SAMPLES-PER-SECOND 30
:FULLY-SPECIFIED
:DEGREES
155
root  -35.9234 41.3299 42.5005 -0.850806 -0.254448 -0.146663
RightUpLeg  -2.29669 -6.38381 -1.13829
RightLeg  3.50555 -7.1653 4.15942
RightFoot  -0.305567 0.448459 -4.64707
RightToes  -1.74624e-010 0 -3.6325e-017
Spine  5.77983 -0.23261 3.59556
Spine1  0.322254 0.652938 -4.05422
HEad  -12.1422 7.10463 1.19935
LeftShoulder1  0.613415 -0.0539968 -9.75495
LeftArm  -15.4753 12.6479 -2.47039
LeftForeArm  13.024 -6.22804 -2.54248
LeftHand  -0.244104 0.0205437 5.32207
RightShoulder  0.638379 0.283134 9.52153
RightArm  -16.8612 -2.89371 -0.281519
RightForeArm  -7.36412 1.58095 4.7236
RightHand  -1.04658 4.55866 -12.4505
LeftUpLeg  -2.69868 4.73537 3.6739
LeftLeg  3.56171 8.78924 -2.96169
LeftFoot  -0.766627 0.129138 -1.3345
LeftToes  1.28235e-010 -1.10989e-010 2.53219e-011
156
root  -35.8706 41.3307 42.5376 -0.701591 -0.24066 -0.145808
RightUpLeg  -2.47463 -6.33633 -1.14113
RightLeg  3.61823 -7.25124 4.07156
RightFoot  -0.30733 0.466456 -4.8434
RightToes  -1.74624e-010 0 -3.6325e-017
Spine  5.82 -0.307487 3.18379
Spine1  0.230085 0.509419 -3.77116
HEad  -12.1042 7.01811 1.17226
LeftShoulder1  0.582681 0.0960108 -9.58781
LeftArm  -14.7259 12.7234 -2.42455
LeftForeArm  12.214 -5.04873 -2.66085
LeftHand  -0.244104 0.0205437 5.32207
RightShoulder  0.641412 0.239905 9.83929
RightArm  -16.4885 -3.06852 -0.54018
RightForeArm  -7.17362 1.35207 4.76918
RightHand  -1.00575 4.33284 -12.2397
LeftUpLeg  -2.77415 4.72645 3.62676
LeftLeg  3.54276 8.72589 -3.02501
LeftFoot  -0.901623 0.124835 -1.3077
LeftToes  1.28235e-010 -1.10989e-010 2.53219e-011
157
root  -35.8146 41.331 42.5624 -0.659595 -0.365701 -0.194293
RightUpLeg  -2.54062 -6.17445 -1.06738
RightLeg  3.68024 -7.26947 3.90113
RightFoot  -0.31343 0.468631 -4.84437
RightToes  -1.74624e-010 0 -3.6325e-017
Spine  6.07486 -0.344796 2.89598
Spine1  -0.0126162 0.420028 -3.55691
HEad  -11.9667 6.40614 0.926441
LeftShoulder1  0.552774 0.236152 -9.37934
LeftArm  -14.3003 13.125 -2.30473
LeftForeArm  11.2941 -4.49851 -2.71643
LeftHand  -0.244104 0.0205437 5.32207
RightShoulder  0.633712 0.187841 9.93402
RightArm  -16.064 -3.26017 -0.805527
RightForeArm  -6.91476 1.12336 4.82245
RightHand  -0.922307 3.81721 -11.8552
LeftUpLeg  -2.71192 4.85779 3.67344
LeftLeg  3.47649 8.76772 -3.17702
LeftFoot  -1.05277 0.109817 -1.14971
LeftToes  1.28235e-010 -1.10989e-010 2.53219e-011
158
root  -35.7512 41.3304 42.5789 -0.629772 -0.510808 -0.288262
RightUpLeg  -2.58778 -5.98883 -0.965016
RightLeg  3.71001 -7.27383 3.74391
RightFoot  -0.310631 0.468163 -4.83728
RightToes  -1.74624e-010 0 -3.6325e-017
Spine  6.33244 -0.38126 2.81178
Spine1  -0.235826 0.372468 -3.54195
HEad  -11.8253 7.15496 0.866095
LeftShoulder1  0.531548 0.321634 -9.13794
LeftArm  -14.1558 13.7555 -2.14838
LeftForeArm  10.6706 -4.59573 -2.71398
LeftHand  -0.244104 0.0205437 5.32207
RightShoulder  0.630135 0.137035 10.0052
RightArm  -15.969 -3.46395 -1.09114
RightForeArm  -6.96279 0.862445 4.78747
RightHand  -0.91653 3.7061 -11.9165
LeftUpLeg  -2.72379 4.98491 3.72014
LeftLeg  3.53145 8.82965 -3.26139
LeftFoot  -1.07722 0.0883377 -0.911195
LeftToes  1.28235e-010 -1.10989e-010 2.53219e-011
159
root  -35.6834 41.3281 42.5929 -0.594331 -0.557041 -0.357035
RightUpLeg  -2.6629 -5.94997 -0.96315
RightLeg  3.81533 -7.2886 3.69664
RightFoot  -0.370858 0.468953 -4.90339
RightToes  -1.74624e-010 0 -3.6325e-017
Spine  6.46572 -0.466869 2.84765
Spine1  -0.309647 0.323592 -3.75794
HEad  -11.679 7.81454 1.01243
LeftShoulder1  0.488656 0.504177 -8.66331
LeftArm  -14.2234 14.1653 -2.2188
LeftForeArm  10.5364 -4.73217 -2.65973
LeftHand  -0.244104 0.0205437 5.32207
RightShoulder  0.637486 0.112437 10.2958
RightArm  -16.0509 -3.5537 -1.46768
RightForeArm  -7.15733 0.489601 4.71393
RightHand  -0.959521 3.9942 -12.0978
LeftUpLeg  -2.83052 4.96067 3.66115
LeftLeg  3.72399 8.88936 -3.18861
LeftFoot  -1.13838 0.0785195 -0.806577
LeftToes  1.28235e-010 -1.10989e-010 2.53219e-011
160
root  -35.618 41.3258 42.6038 -0.588461 -0.579535 -0.360384
RightUpLeg  -2.73243 -6.05212 -1.09124
RightLeg  3.99325 -7.27138 3.71952
RightFoot  -0.531317 0.449968 -4.78684
RightToes  -1.74624e-010 0 -3.6325e-017
Spine  6.55169 -0.553946 2.87619
Spine1  -0.322331 0.285682 -4.02027
HEad  -11.5879 5.51451 1.09845
LeftShoulder1  0.431873 0.764635 -8.07068
LeftArm  -14.4643 14.2193 -2.52742
LeftForeArm  10.6812 -4.59968 -2.55323
LeftHand  -0.244104 0.0205437 5.32207
RightShoulder  0.639469 0.0886596 10.575
RightArm  -16.097 -3.61336 -1.69924
RightForeArm  -7.16283 0.27363 4.66674
RightHand  -0.940811 3.9548 -11.9133
LeftUpLeg  -2.87657 4.86232 3.52526
LeftLeg  3.84795 9.00628 -3.09695
LeftFoot  -1.27736 0.0772371 -0.813067
LeftToes  1.28235e-010 -1.10989e-010 2.53219e-011
161
root  -35.5569 41.3244 42.6119 -0.5902 -0.708976 -0.333964
RightUpLeg  -2.78612 -6.14622 -1.24267
RightLeg  4.13069 -7.16237 3.72021
RightFoot  -0.684174 0.40774 -4.41612
RightToes  -1.74624e-010 0 -3.6325e-017
Spine  6.65298 -0.554754 2.86577
Spine1  -0.420441 0.302988 -4.11647
HEad  -11.0677 1.73414 0.660956
LeftShoulder1  0.413163 0.850526 -7.84581
LeftArm  -14.6602 14.2122 -2.60717
LeftForeArm  10.7921 -4.56933 -2.4759
LeftHand  -0.244104 0.0205437 5.32207
RightShoulder  0.626759 0.0348015 10.4709
RightArm  -16.0629 -3.84088 -1.56251
RightForeArm  -6.96816 0.506753 4.66213
RightHand  -0.863453 3.43892 -11.5691
LeftUpLeg  -2.82487 4.84506 3.42151
LeftLeg  3.80194 9.16606 -3.13797
LeftFoot  -1.32095 0.0722935 -0.752612
LeftToes  1.28235e-010 -1.10989e-010 2.53219e-011
162
root  -35.4996 41.3241 42.6209 -0.578763 -0.925895 -0.331295
RightUpLeg  -2.82614 -6.13403 -1.30918
RightLeg  4.17582 -6.98962 3.6603
RightFoot  -0.711653 0.377194 -4.10143
RightToes  -1.74624e-010 0 -3.6325e-017
Spine  6.75347 -0.49211 2.86389
Spine1  -0.60134 0.358815 -4.0911
HEad  -10.5554 1.27865 1.06264
LeftShoulder1  0.435813 0.740972 -8.07877
LeftArm  -14.5706 14.2971 -2.24611
LeftForeArm  10.7458 -4.89597 -2.52795
LeftHand  -0.244104 0.0205437 5.32207
RightShoulder  0.611061 -0.00651019 10.2055
RightArm  -15.9003 -4.0614 -1.32195
RightForeArm  -6.67191 0.881898 4.70877
RightHand  -0.814862 3.088 -11.3642
LeftUpLeg  -2.74368 4.90642 3.39219
LeftLeg  3.68771 9.30615 -3.26074
LeftFoot  -1.24445 0.0643274 -0.642229
LeftToes  1.28235e-010 -1.10989e-010 2.53219e-011
163
root  -35.4472 41.324 42.6304 -0.605171 -1.11954 -0.366402
RightUpLeg  -2.81723 -6.02525 -1.27973
RightLeg  4.18814 -6.8681 3.54252
RightFoot  -0.651436 0.372535 -4.03085
RightToes  -1.74624e-010 0 -3.6325e-017
Spine  6.87509 -0.476057 2.91746
Spine1  -0.770884 0.389924 -4.18352
HEad  -10.3303 3.94238 0.992482
LeftShoulder1  0.441578 0.718604 -8.16859
LeftArm  -14.3209 14.3121 -1.97565
LeftForeArm  10.6396 -5.20248 -2.65403
LeftHand  -0.244104 0.0205437 5.32207
RightShoulder  0.621135 0.0223341 10.3629
RightArm  -15.6389 -3.86881 -1.40586
RightForeArm  -6.28261 0.873976 4.79033
RightHand  -0.820106 3.25145 -11.2305
LeftUpLeg  -2.64718 4.95311 3.3988
LeftLeg  3.63021 9.41827 -3.32874
LeftFoot  -1.20957 0.0620489 -0.61921
LeftToes  1.28235e-010 -1.10989e-010 2.53219e-011
164
root  -35.4003 41.3227 42.6346 -0.681414 -1.24997 -0.416412
RightUpLeg  -2.77513 -5.89099 -1.21958
RightLeg  4.23401 -6.84659 3.39891
RightFoot  -0.61871 0.372267 -4.03657
RightToes  -1.74624e-010 0 -3.6325e-017
Spine  7.0021 -0.528429 2.97622
Spine1  -0.824633 0.369117 -4.3496
HEad  -10.2486 6.80992 1.22258
LeftShoulder1  0.406406 0.893232 -7.83424
LeftArm  -14.2592 14.1459 -2.23084
LeftForeArm  10.6727 -5.1448 -2.70448
LeftHand  -0.244104 0.0205437 5.32207
RightShoulder  0.638921 0.0344618 10.8564
RightArm  -15.568 -3.26005 -1.66533
RightForeArm  -5.91862 0.596748 4.83836
RightHand  -0.852319 3.60739 -11.2202
LeftUpLeg  -2.56074 4.96423 3.3993
LeftLeg  3.67337 9.52493 -3.3194
LeftFoot  -1.26904 0.0646283 -0.659297
LeftToes  1.28235e-010 -1.10989e-010 2.53219e-011
165
root  -35.3576 41.3195 42.6311 -0.712034 -1.34048 -0.451885
RightUpLeg  -2.79038 -5.81753 -1.20019
RightLeg  4.29009 -6.84113 3.30472
RightFoot  -0.626226 0.367638 -3.97195
RightToes  -1.74624e-010 0 -3.6325e-017
Spine  7.02032 -0.575195 2.94601
Spine1  -0.729686 0.319754 -4.32358
HEad  -10.3408 7.65746 1.36845
LeftShoulder1  0.371546 1.07177 -7.50012
LeftArm  -14.4486 13.9413 -2.70987
LeftForeArm  10.9733 -4.99228 -2.65485
LeftHand  -0.244104 0.0205437 5.32207
RightShoulder  0.630671 -0.0547653 11.1064
RightArm  -15.7948 -2.66294 -1.68628
RightForeArm  -5.82399 0.540451 4.83133
RightHand  -0.90398 3.87838 -11.55
LeftUpLeg  -2.57035 4.9708 3.37532
LeftLeg  3.76857 9.61566 -3.30204
LeftFoot  -1.32048 0.0630369 -0.634565
LeftToes  1.28235e-010 -1.10989e-010 2.53219e-011
